<svg width="1920" height="1080" viewBox="0 0 1920 1080" xmlns="http://www.w3.org/2000/svg"><rect width="1920" height="1080" fill="#f1d5dd"/><path d="M 0,1080 C 0,1080 0,120 0,120 C 78.13038938380606,104.1488804885141 156.26077876761212,88.2977609770282 210,79 C 263.7392212323879,69.7022390229718 293.0872743133575,66.95783658040129 353,82 C 412.9127256866425,97.04216341959871 503.39012397895806,129.87089270136664 573,150 C 642.6098760210419,170.12910729863336 691.3522297708107,177.558592614132 752,161 C 812.6477702291893,144.441407385868 885.200956937799,103.89473684210527 957,98 C 1028.799043062201,92.10526315789473 1099.8439424779929,120.86246001744692 1158,123 C 1216.1560575220071,125.13753998255308 1261.4232731502284,100.65542308810701 1325,106 C 1388.5767268497716,111.34457691189299 1470.4629649210926,146.51584763012502 1534,162 C 1597.5370350789074,177.48415236987498 1642.724867165402,173.28118639139285 1704,163 C 1765.275132834598,152.71881360860715 1842.637566417299,136.35940680430357 1920,120 C 1920,120 1920,1080 1920,1080 Z" fill="#631d59" opacity="0.06666666666666667"/><path d="M 0,1080 C 0,1080 0,240 0,240 C 85.71561500436175,247.4393983451849 171.4312300087235,254.87879669036982 226,242 C 280.5687699912765,229.12120330963018 303.9906949694678,195.92421158370564 349,197 C 394.0093050305322,198.07578841629436 460.605990113405,233.42435697480764 547,238 C 633.394009886595,242.57564302519236 739.585344576912,216.37836051706367 799,207 C 858.414655423088,197.62163948293633 871.0526315789473,205.06220095693777 926,223 C 980.9473684210527,240.93779904306223 1078.2041291072987,269.3728356551852 1155,267 C 1231.7958708927013,264.6271643448148 1288.1308519918582,231.44645642232152 1349,213 C 1409.8691480081418,194.55354357767848 1475.2724629252689,190.84133865552883 1540,207 C 1604.7275370747311,223.15866134447117 1668.779296307066,259.1881889555632 1732,268 C 1795.220703692934,276.8118110444368 1857.610351846467,258.4059055222184 1920,240 C 1920,240 1920,1080 1920,1080 Z" fill="#631d59" opacity="0.13333333333333333"/><path d="M 0,1080 C 0,1080 0,360 0,360 C 48.45420180284967,354.0360702106849 96.90840360569933,348.07214042136985 159,342 C 221.09159639430067,335.92785957863015 296.82058738005225,329.74750852520555 369,324 C 441.17941261994775,318.25249147479445 509.8092468740914,312.937825477808 569,325 C 628.1907531259086,337.062174522192 677.9424251235824,366.5011895635623 749,361 C 820.0575748764176,355.4988104364377 912.421052631579,315.0574162679426 985,318 C 1057.578947368421,320.9425837320574 1110.3733643501016,367.2691453646673 1160,368 C 1209.6266356498984,368.7308546353327 1256.0854899680141,323.8660022733881 1321,317 C 1385.9145100319859,310.1339977266119 1469.2846757778423,341.2668455417802 1537,364 C 1604.7153242221577,386.7331544582198 1656.7758069206163,401.0666155594914 1718,399 C 1779.2241930793837,396.9333844405086 1849.6120965396917,378.4666922202543 1920,360 C 1920,360 1920,1080 1920,1080 Z" fill="#631d59" opacity="0.2"/><path d="M 0,1080 C 0,1080 0,480 0,480 C 62.339792222897785,496.6809458352058 124.67958444579557,513.3618916704116 181,521 C 237.32041555420443,528.6381083295884 287.62145443971554,527.2333791535593 349,520 C 410.37854556028446,512.7666208464407 482.83459779534223,499.70459171535066 560,487 C 637.1654022046578,474.29540828464934 719.0401543789156,461.948253985038 781,464 C 842.9598456210844,466.051746014962 885.0047846889952,482.50239234449754 944,488 C 1002.9952153110048,493.49760765550246 1078.9407068651033,488.0421766369717 1143,493 C 1207.0592931348967,497.9578233630283 1259.232387850591,513.3289011076158 1330,519 C 1400.767612149409,524.6710988923842 1490.1297417325331,520.6422189325649 1552,518 C 1613.8702582674669,515.3577810674351 1648.248645219276,514.1022231621243 1705,508 C 1761.751354780724,501.89777683787565 1840.875677390362,490.9488884189378 1920,480 C 1920,480 1920,1080 1920,1080 Z" fill="#631d59" opacity="0.26666666666666666"/><path d="M 0,1080 C 0,1080 0,600 0,600 C 76.42852044727593,601.4594094477782 152.85704089455186,602.9188188955562 222,598 C 291.14295910544814,593.0811811044438 353.00035686906864,581.7841338655529 418,580 C 482.99964313093136,578.2158661344471 551.1415316291734,585.9446456422321 609,586 C 666.8584683708266,586.0553543577679 714.4335166142376,578.4372835655186 780,587 C 845.5664833857624,595.5627164344814 929.1244019138758,620.3062200956938 983,624 C 1036.8755980861242,627.6937799043062 1061.0688757302598,610.3378360517063 1125,609 C 1188.9311242697402,607.6621639482937 1292.6000951650851,622.3424356974807 1355,633 C 1417.3999048349149,643.6575643025193 1438.5307436094001,650.2924211583706 1503,631 C 1567.4692563905999,611.7075788416294 1675.2769303973143,566.4878796690369 1752,557 C 1828.7230696026857,547.5121203309631 1874.3615348013427,573.7560601654816 1920,600 C 1920,600 1920,1080 1920,1080 Z" fill="#631d59" opacity="0.3333333333333333"/><path d="M 0,1080 C 0,1080 0,720 0,720 C 67.84756403817178,727.4155806391922 135.69512807634356,734.8311612783843 197,724 C 258.30487192365644,713.1688387216157 313.06705173279755,684.090935525655 374,690 C 434.93294826720245,695.909064474345 502.03666499246606,736.805096618996 578,743 C 653.9633350075339,749.194903381004 738.786288297338,720.688677998361 796,702 C 853.213711702662,683.311322001639 882.818181818182,674.4401913875598 942,683 C 1001.181818181818,691.5598086124402 1089.9409844299346,717.5505564513996 1156,719 C 1222.0590155700654,720.4494435486004 1265.4178804620794,697.3575828068414 1326,707 C 1386.5821195379206,716.6424171931586 1464.387493721748,759.0191123212351 1538,755 C 1611.612506278252,750.9808876787649 1681.032144650929,700.5659679082187 1744,687 C 1806.967855349071,673.4340320917813 1863.4839276745356,696.7170160458907 1920,720 C 1920,720 1920,1080 1920,1080 Z" fill="#631d59" opacity="0.4"/><path d="M 0,1080 C 0,1080 0,840 0,840 C 70.01391789367946,847.5454545454545 140.02783578735892,855.0909090909091 199,851 C 257.9721642126411,846.9090909090909 305.9025747442438,831.1818181818181 360,816 C 414.0974252557562,800.8181818181819 474.36186523566573,786.1818181818182 544,807 C 613.6381347643343,827.8181818181818 692.6499643130933,884.0909090909091 761,881 C 829.3500356869067,877.9090909090909 887.0382775119616,815.4545454545455 952,795 C 1016.9617224880384,774.5454545454545 1089.19692563906,796.090909090909 1159,801 C 1228.80307436094,805.909090909091 1296.1740199317983,794.1818181818184 1348,807 C 1399.8259800682017,819.8181818181816 1436.1069946337464,857.1818181818182 1502,867 C 1567.8930053662536,876.8181818181818 1663.3980015332156,859.090909090909 1738,850 C 1812.6019984667844,840.909090909091 1866.3009992333923,840.4545454545455 1920,840 C 1920,840 1920,1080 1920,1080 Z" fill="#631d59" opacity="0.4666666666666667"/><path d="M 0,1080 C 0,1080 0,960 0,960 C 57.45843136218245,972.4486240714796 114.9168627243649,984.8972481429591 181,990 C 247.0831372756351,995.1027518570409 321.7909804647228,992.859631499643 392,991 C 462.2090195352772,989.140368500357 527.9192154167438,987.6642258584684 579,987 C 630.0807845832562,986.3357741415316 666.5321578683021,986.4834650664835 741,975 C 815.4678421316979,963.5165349335165 927.9521531100479,940.4019138755981 995,943 C 1062.047846889952,945.5980861244019 1083.6592296915064,973.9088794311242 1134,969 C 1184.3407703084936,964.0911205688758 1263.4109281239262,925.962568399905 1334,935 C 1404.5890718760738,944.037431600095 1466.6970578127891,1000.2408469692564 1537,1004 C 1607.3029421872109,1007.7591530307436 1685.8008406249173,959.0740437230696 1751,943 C 1816.1991593750827,926.9259562769304 1868.0995796875413,943.4629781384651 1920,960 C 1920,960 1920,1080 1920,1080 Z" fill="#631d59" opacity="0.5333333333333333"/></svg>